<?xml version="1.0"?>
<svg id="Capa_2" data-name="Capa 2" xmlns="http://www.w3.org/2000/svg" width="131.88" height="25.11" viewBox="0 0 131.88 25.11">
  <defs>
    
  </defs>
  <g id="Capa_1" data-name="Capa 1">
    <g id="g44809">
      <path id="path28794" class="cls-1" fill="#ffffff" d="M76.47,19.47h-8.34v-4.68h8.34c1.37.02,2.48,1.05,2.48,2.33s-1.11,2.35-2.48,2.35M68.13,5.75h8.2c1.12.01,2.07.88,2.07,2.01s-1,2.03-2.12,2.02h-8.15v-4.03ZM81.18,12.29c1.54-1.08,2.13-2.88,2.13-4.86,0-3.72-3.13-6.7-6.98-6.7h-13.92v23.76h14.46c4.06,0,7.44-3.12,7.44-6.96,0-2.5-1.51-4.35-3.14-5.23M102.64.68v13.36c0,4.08-2.39,5.8-5.32,5.8s-5.3-1.71-5.3-5.79V.68h-5.92v13.4c0,8.54,5.02,11.03,11.23,11.03s11.23-2.49,11.23-11.03V.68h-5.92ZM123.42,9.93c-4.79-1.04-6.41-1.5-6.41-3.02,0-1.34,1.73-2.02,4.47-2.02,2.59,0,5.71,1.1,7.55,2.2l1.87-4.83c-2.78-1.16-6.12-2.26-10.54-2.26-5.8,0-9.41,3.39-9.41,7.53s2.98,5.97,8.89,7.22c4.58.97,5.82,1.55,5.82,2.98s-1.84,1.95-4.32,1.95c-3.21,0-6.31-1.07-9.22-2.32l-1.76,4.71c3.48,1.61,7.1,2.91,11.41,2.91,7.19,0,10.12-3.43,10.12-7.44,0-3.56-2.47-6.3-8.46-7.61M12,.73L0,24.48h7.13s1.79-3.82,1.79-3.82h8.19l-2.55-5.2h-3.23l3.04-6.5,7.67,15.52h7.15L16.72.73h-4.72ZM60.22,8.63c0-4.33-2.97-7.84-9.07-7.84h-12.32v23.76h5.71V5.81h7.01c2.07,0,2.93,1.28,2.93,2.81s-.91,2.75-2.98,2.75h-4.9l7.42,13.18h5.86s-5.07-8.61-5.05-8.62c3.66-1.14,5.39-3.91,5.39-7.3M30.41,24.5h5.91V.74h-5.91v23.75Z"></path>
    </g>
  </g>
</svg>